<?xml version="1.0" standalone="no"?>
<!DOCTYPE svg PUBLIC "-//W3C//DTD SVG 20010904//EN"
 "http://www.w3.org/TR/2001/REC-SVG-20010904/DTD/svg10.dtd">
<svg version="1.0" xmlns="http://www.w3.org/2000/svg"
 width="826.000000pt" height="230.000000pt" viewBox="0 0 826.000000 230.000000"
 preserveAspectRatio="xMidYMid meet">

<g transform="translate(0.000000,230.000000) scale(0.100000,-0.100000)"
fill="#fff" stroke="none">
<path d="M5408 1827 c-101 -19 -108 -22 -108 -44 0 -19 5 -23 33 -23 57 0 70
-18 78 -106 10 -108 10 -648 0 -708 -10 -57 -37 -86 -82 -86 -22 0 -29 -5 -29
-20 0 -19 7 -20 170 -20 163 0 170 1 170 20 0 15 -7 20 -29 20 -16 0 -39 9
-52 19 l-24 19 -3 468 c-1 258 -6 471 -10 475 -4 3 -55 -3 -114 -14z"/>
<path d="M1406 1787 c-15 -29 -78 -134 -140 -234 -103 -170 -113 -182 -141
-183 -164 -3 -359 -127 -439 -279 -111 -211 -74 -432 101 -607 186 -186 526
-191 727 -12 114 101 176 234 176 377 -1 128 -34 223 -112 322 l-40 51 94 156
c119 197 151 253 146 257 -4 3 -241 145 -298 177 l-45 26 -29 -51z m-177 -673
c78 -23 154 -99 176 -178 52 -180 -70 -351 -250 -350 -145 1 -256 117 -256
268 0 126 66 218 190 262 48 17 77 17 140 -2z"/>
<path d="M4305 1589 c-10 -29 -70 -94 -111 -120 -23 -14 -34 -28 -34 -45 0
-21 5 -24 35 -24 l35 0 0 -242 c0 -273 5 -295 70 -330 49 -25 148 -24 200 2
47 24 67 54 49 76 -10 12 -17 9 -46 -16 -58 -51 -123 -34 -143 38 -5 20 -10
135 -10 255 l0 217 86 0 85 0 -3 28 c-3 27 -4 27 -85 30 l-83 3 0 74 c0 67 -2
75 -19 75 -11 0 -23 -9 -26 -21z"/>
<path d="M2205 1465 c-74 -18 -91 -26 -93 -42 -2 -17 4 -21 36 -27 57 -9 62
-30 62 -278 0 -208 0 -209 -25 -233 -13 -14 -36 -25 -50 -25 -18 0 -25 -5 -25
-20 0 -19 7 -20 160 -20 153 0 160 1 160 20 0 14 -7 20 -24 20 -13 0 -34 9
-47 19 -24 19 -24 22 -24 208 0 161 3 193 18 220 40 75 115 117 194 111 57 -5
84 -23 111 -73 13 -24 17 -70 20 -232 l4 -202 -26 -25 c-16 -17 -36 -26 -56
-26 -23 0 -30 -4 -30 -20 0 -19 7 -20 165 -20 158 0 165 1 165 20 0 15 -7 20
-25 20 -14 0 -37 11 -50 25 -25 24 -25 27 -25 200 0 194 5 219 60 273 40 40
90 62 142 62 59 0 96 -24 121 -78 20 -43 22 -63 22 -244 0 -219 -1 -224 -66
-237 -20 -4 -35 -14 -37 -24 -3 -15 11 -17 162 -17 159 0 166 1 166 20 0 15
-7 20 -28 20 -16 0 -37 6 -48 14 -17 13 -20 33 -26 241 -6 209 -8 230 -30 273
-32 65 -95 97 -193 96 -81 0 -143 -24 -213 -81 -27 -22 -47 -33 -49 -26 -9 27
-48 65 -86 86 -33 17 -59 22 -117 22 -87 -1 -141 -22 -213 -86 l-46 -40 -6 48
c-11 84 -8 82 -110 58z"/>
<path d="M3731 1479 c-212 -41 -322 -263 -240 -485 25 -67 97 -138 166 -164
66 -25 180 -27 246 -4 26 9 69 35 95 59 44 41 46 44 30 61 -16 16 -19 15 -54
-16 -21 -18 -52 -39 -70 -46 -45 -19 -128 -18 -170 2 -80 38 -134 142 -134
260 l0 64 223 2 222 3 3 37 c8 99 -58 192 -157 222 -59 17 -92 18 -160 5z
m130 -72 c18 -12 39 -34 46 -47 17 -33 16 -79 0 -86 -7 -2 -76 -3 -154 -2
l-141 3 13 39 c35 100 155 148 236 93z"/>
<path d="M4803 1480 c-88 -19 -135 -59 -135 -115 0 -41 8 -52 37 -55 47 -5 56
1 77 48 32 73 43 82 104 82 79 0 111 -32 126 -123 7 -40 7 -71 2 -76 -5 -5
-62 -32 -127 -61 -143 -64 -199 -100 -228 -146 -28 -46 -29 -125 -2 -163 68
-93 256 -76 333 30 30 42 40 41 40 -2 0 -15 12 -41 26 -58 22 -27 32 -31 76
-31 58 0 115 24 124 52 8 27 3 30 -33 16 -74 -28 -84 3 -92 282 -7 254 -9 263
-82 300 -46 24 -178 35 -246 20z m213 -381 c-8 -98 -35 -161 -85 -195 -65 -44
-148 -26 -170 36 -24 70 31 141 153 201 112 55 110 55 102 -42z"/>
<path d="M5903 1480 c-107 -23 -172 -98 -130 -152 12 -16 32 -22 70 -19 11 1
25 19 38 49 30 69 45 82 96 82 90 0 133 -47 133 -147 l0 -58 -115 -50 c-63
-27 -138 -66 -167 -86 -157 -105 -111 -290 72 -288 80 0 138 27 180 82 36 48
50 52 50 12 0 -35 19 -71 45 -85 33 -18 120 -8 153 17 33 24 44 60 16 48 -49
-20 -72 -18 -91 11 -16 24 -19 57 -23 254 -6 256 -11 275 -81 310 -46 24 -178
35 -246 20z m207 -377 c-1 -133 -62 -223 -153 -223 -49 0 -83 23 -97 65 -15
45 -5 77 37 120 32 33 173 113 201 115 8 0 12 -22 12 -77z"/>
<path d="M6643 1481 c-47 -12 -119 -57 -142 -90 -35 -48 -47 -113 -32 -168 14
-55 52 -109 92 -132 36 -20 36 -27 3 -35 -99 -25 -134 -130 -64 -189 32 -27
45 -30 222 -52 132 -16 182 -35 203 -76 37 -71 4 -154 -73 -180 -48 -17 -197
-17 -244 -1 -53 19 -88 58 -88 99 0 40 22 88 45 97 23 8 11 22 -26 30 -71 14
-138 -56 -125 -133 8 -51 35 -82 101 -116 57 -29 63 -30 199 -30 87 0 157 5
184 13 55 17 117 73 133 119 17 54 7 135 -24 181 -41 63 -105 89 -272 108
-138 16 -185 31 -185 59 0 23 35 36 142 51 119 17 188 49 227 108 22 34 26 50
26 115 0 42 -4 88 -9 103 -7 25 -5 29 20 39 24 9 36 7 71 -11 45 -24 86 -22
97 5 10 28 -13 66 -51 81 -43 19 -86 10 -142 -29 l-35 -24 -56 29 c-59 31
-142 43 -197 29z m119 -52 c32 -17 58 -86 58 -159 0 -87 -14 -134 -51 -164
-43 -36 -83 -34 -124 7 -99 99 -57 327 60 327 20 0 45 -5 57 -11z"/>
<path d="M7441 1480 c-180 -38 -287 -202 -259 -400 10 -80 46 -148 104 -199
114 -100 319 -96 433 9 l44 41 -22 16 c-21 14 -24 14 -54 -15 -49 -46 -89 -62
-155 -62 -125 0 -211 102 -220 260 l-5 80 220 0 c164 0 223 3 231 13 13 16 -1
104 -23 147 -47 92 -167 136 -294 110z m125 -66 c41 -20 66 -63 62 -107 l-3
-32 -152 -3 -152 -3 11 33 c36 107 140 157 234 112z"/>
<path d="M1960 423 c-39 -68 -78 -122 -134 -180 l-40 -43 1067 0 1067 0 0 140
0 140 -964 0 -964 0 -32 -57z"/>
</g>
</svg>
