<?xml version="1.0" standalone="no"?>
<!DOCTYPE svg PUBLIC "-//W3C//DTD SVG 20010904//EN"
 "http://www.w3.org/TR/2001/REC-SVG-20010904/DTD/svg10.dtd">
<svg version="1.0" xmlns="http://www.w3.org/2000/svg"
 width="826.000000pt" height="302.000000pt" viewBox="0 0 826.000000 302.000000"
 preserveAspectRatio="xMidYMid meet">

<g transform="translate(0.000000,302.000000) scale(0.100000,-0.100000)"
fill="#000000" stroke="none">
<path d="M5383 2542 c-74 -13 -83 -17 -83 -37 0 -18 6 -22 37 -23 46 -2 63
-19 73 -74 13 -65 12 -712 0 -758 -12 -45 -42 -70 -82 -70 -21 0 -28 -5 -28
-20 0 -19 7 -20 170 -20 163 0 170 1 170 20 0 16 -7 20 -30 20 -19 0 -40 9
-55 25 l-25 24 0 466 0 465 -32 -1 c-18 -1 -70 -9 -115 -17z"/>
<path d="M1349 2408 c-200 -332 -190 -318 -224 -318 -46 0 -173 -38 -230 -68
-73 -40 -176 -146 -213 -220 -42 -86 -56 -159 -49 -269 7 -125 51 -219 146
-314 165 -165 406 -204 619 -98 298 146 380 507 178 773 -20 25 -36 48 -36 50
0 2 165 281 222 373 l19 32 -58 36 c-105 65 -276 165 -282 165 -3 0 -45 -64
-92 -142z m-67 -595 c87 -47 136 -133 136 -238 0 -112 -50 -195 -148 -244 -72
-35 -122 -39 -193 -15 -152 52 -225 231 -153 377 69 142 223 193 358 120z"/>
<path d="M4305 2309 c-10 -29 -82 -107 -117 -125 -19 -10 -28 -22 -28 -39 0
-22 4 -25 35 -25 l35 0 0 -235 c0 -273 6 -302 71 -335 74 -38 208 -18 244 37
13 20 14 27 4 40 -11 12 -15 13 -23 1 -39 -51 -100 -61 -143 -24 l-28 24 -3
246 -3 245 83 3 c81 3 83 4 83 28 0 24 -2 25 -82 28 l-83 3 0 74 c0 67 -2 75
-19 75 -11 0 -23 -9 -26 -21z"/>
<path d="M2525 2200 c-64 -13 -89 -26 -148 -74 -52 -42 -55 -44 -61 -23 -3 12
-6 37 -6 55 0 50 -11 51 -162 11 -28 -7 -38 -15 -38 -29 0 -15 7 -20 28 -20
16 0 37 -6 48 -14 18 -13 19 -30 22 -243 3 -221 3 -230 -18 -256 -15 -18 -31
-27 -51 -27 -22 0 -29 -5 -29 -20 0 -19 7 -20 160 -20 153 0 160 1 160 20 0
14 -7 20 -24 20 -13 0 -34 9 -47 19 -23 19 -24 24 -27 196 -4 173 -3 177 22
229 17 35 41 64 68 82 35 25 51 29 109 29 53 0 72 -4 89 -20 50 -45 55 -67 58
-280 4 -193 3 -201 -18 -228 -16 -20 -30 -27 -56 -27 -28 0 -35 -4 -32 -17 3
-16 20 -18 166 -21 157 -2 162 -2 162 18 0 15 -7 20 -27 20 -65 1 -73 26 -73
233 0 163 1 177 23 218 13 24 43 58 66 74 37 26 51 30 111 30 125 0 145 -44
145 -327 0 -208 -2 -214 -66 -227 -20 -4 -35 -14 -37 -24 -3 -15 11 -17 162
-17 159 0 166 1 166 20 0 16 -7 20 -30 20 -17 0 -39 9 -50 20 -18 18 -20 33
-20 173 0 185 -13 308 -37 351 -28 49 -100 79 -187 79 -87 0 -153 -26 -212
-84 l-40 -40 -25 38 c-43 68 -148 103 -244 83z"/>
<path d="M3737 2200 c-139 -24 -239 -128 -267 -277 -27 -153 40 -296 170 -364
39 -21 59 -24 145 -24 89 0 105 3 150 27 28 14 63 40 80 57 27 29 28 32 12 48
-16 16 -19 15 -49 -14 -40 -37 -63 -50 -116 -62 -69 -15 -128 4 -183 59 -56
56 -79 120 -79 217 l0 63 223 2 222 3 3 37 c13 153 -131 258 -311 228z m119
-66 c41 -20 66 -63 62 -107 l-3 -32 -153 -3 -154 -3 8 23 c35 115 141 169 240
122z"/>
<path d="M4818 2199 c-102 -15 -148 -52 -148 -120 0 -40 11 -49 61 -49 26 0
33 6 51 48 32 73 43 82 106 82 48 0 58 -4 87 -33 27 -27 34 -44 40 -89 4 -31
5 -62 3 -68 -2 -6 -60 -37 -129 -69 -141 -64 -206 -107 -233 -152 -25 -42 -24
-123 1 -158 68 -93 256 -76 330 30 16 21 31 39 36 39 4 0 7 -16 7 -36 0 -53
44 -94 102 -94 47 0 105 25 122 52 13 22 1 35 -18 19 -8 -7 -27 -11 -43 -9
-50 6 -57 37 -63 288 -5 213 -6 227 -27 256 -13 18 -40 38 -60 47 -50 19 -154
27 -225 16z m199 -380 c-9 -136 -70 -219 -159 -219 -50 0 -84 23 -98 65 -22
67 32 136 155 198 106 54 109 53 102 -44z"/>
<path d="M5918 2199 c-114 -17 -174 -75 -149 -143 9 -22 17 -26 50 -26 37 0
40 3 61 48 33 71 46 82 99 82 55 0 107 -29 121 -66 6 -14 10 -51 10 -82 l0
-57 -111 -49 c-158 -70 -221 -113 -249 -170 -37 -77 -13 -150 61 -189 26 -14
50 -17 99 -14 80 5 135 32 174 87 17 22 33 40 38 40 4 0 8 -15 8 -34 0 -22 9
-45 26 -65 22 -26 33 -31 72 -31 50 0 109 24 126 52 13 21 0 36 -16 20 -22
-22 -66 -14 -85 15 -15 23 -19 59 -23 253 -6 259 -11 279 -83 310 -52 22 -153
31 -229 19z m192 -386 c-6 -104 -27 -153 -79 -189 -71 -48 -163 -22 -177 50
-13 71 45 137 171 197 92 43 91 44 85 -58z"/>
<path d="M6650 2199 c-148 -29 -227 -178 -162 -305 20 -40 74 -94 93 -94 23 0
5 -17 -41 -38 -55 -25 -72 -48 -72 -97 0 -81 40 -102 235 -126 159 -19 201
-35 227 -84 19 -36 16 -92 -7 -124 -35 -47 -88 -66 -188 -66 -146 0 -215 37
-215 115 0 38 32 100 52 100 9 0 9 3 1 11 -7 7 -30 12 -53 12 -48 0 -84 -28
-100 -80 -40 -118 88 -203 304 -203 148 0 237 32 289 102 32 42 35 135 8 191
-41 85 -115 116 -324 137 -120 12 -147 21 -147 49 0 31 21 40 131 56 144 21
203 52 242 125 26 49 28 62 24 122 -2 37 -9 74 -16 82 -8 10 -8 16 1 23 28 23
57 24 97 3 51 -25 66 -25 84 1 31 44 -13 92 -83 92 -27 0 -56 -10 -88 -30
l-47 -29 -55 27 c-63 32 -126 41 -190 28z m131 -65 c25 -23 39 -76 39 -149 0
-82 -15 -129 -51 -159 -83 -70 -179 19 -179 165 0 83 44 163 94 171 29 5 75
-8 97 -28z"/>
<path d="M7455 2200 c-164 -24 -276 -162 -276 -339 0 -87 10 -125 45 -185 59
-101 160 -151 291 -144 91 5 154 30 211 86 l35 34 -21 15 c-20 14 -24 13 -53
-15 -48 -45 -92 -63 -152 -63 -130 0 -213 98 -223 264 l-5 77 220 0 c164 0
223 3 231 13 12 15 0 104 -21 144 -47 88 -156 132 -282 113z m110 -64 c40 -17
67 -64 63 -109 l-3 -32 -152 -3 -152 -3 15 43 c35 100 133 144 229 104z"/>
<path d="M1969 1158 c-33 -64 -77 -127 -132 -185 l-50 -53 1067 0 1066 0 0
140 0 140 -965 0 -965 0 -21 -42z"/>
<path d="M2303 510 c0 -41 2 -58 4 -37 2 20 2 54 0 75 -2 20 -4 3 -4 -38z"/>
<path d="M4673 445 c0 -106 2 -123 6 -70 4 39 10 76 15 83 4 6 3 12 -3 12 -5
0 -12 26 -14 58 -2 31 -3 -6 -4 -83z"/>
<path d="M6703 440 c0 -107 2 -128 7 -80 4 36 10 75 14 88 4 13 3 22 -3 22 -5
0 -12 26 -14 58 -2 31 -3 -8 -4 -88z"/>
<path d="M6995 570 c3 -5 8 -10 11 -10 2 0 4 5 4 10 0 6 -5 10 -11 10 -5 0 -7
-4 -4 -10z"/>
<path d="M1652 439 l2 -134 3 108 c2 59 6 107 10 107 3 0 12 -8 20 -17 12 -14
-21 50 -34 66 -2 2 -2 -56 -1 -130z"/>
<path d="M1877 507 c-19 -36 -22 -44 -8 -27 11 14 21 28 21 33 0 4 5 7 10 7 6
0 10 -38 11 -92 0 -60 3 -86 9 -73 4 11 8 62 9 113 0 109 -11 117 -52 39z"/>
<path d="M4485 501 c-7 -12 12 -24 25 -16 11 7 4 25 -10 25 -5 0 -11 -4 -15
-9z"/>
<path d="M6506 501 c-19 -7 -19 -8 1 -13 11 -3 38 -2 59 2 30 6 33 8 12 9 -14
0 -32 3 -40 5 -7 3 -22 1 -32 -3z"/>
<path d="M2682 400 l1 -105 7 80 c4 44 3 91 -1 105 -4 14 -7 -19 -7 -80z"/>
<path d="M3038 493 c7 -3 16 -2 19 1 4 3 -2 6 -13 5 -11 0 -14 -3 -6 -6z"/>
<path d="M3562 483 c-1 -13 -6 -23 -12 -23 -6 0 -5 -10 2 -26 9 -19 9 -33 0
-57 -9 -23 -9 -33 -1 -38 7 -4 10 -21 7 -38 -3 -18 -1 -28 4 -23 5 5 7 58 5
118 -1 60 -4 99 -5 87z"/>
<path d="M3928 493 c7 -3 16 -2 19 1 4 3 -2 6 -13 5 -11 0 -14 -3 -6 -6z"/>
<path d="M4232 483 c-17 -30 -15 -37 4 -19 8 9 14 22 11 29 -2 7 -8 4 -15 -10z"/>
<path d="M4386 485 c-9 -26 -7 -32 5 -12 6 10 9 21 6 23 -2 3 -7 -2 -11 -11z"/>
<path d="M4758 493 c7 -3 16 -2 19 1 4 3 -2 6 -13 5 -11 0 -14 -3 -6 -6z"/>
<path d="M5840 441 c0 -33 -4 -71 -10 -85 -5 -15 -6 -26 0 -26 4 0 11 -8 13
-17 3 -10 5 28 6 85 0 56 -1 102 -4 102 -3 0 -5 -27 -5 -59z"/>
<path d="M6994 400 c0 -58 1 -81 3 -52 2 28 2 76 0 105 -2 28 -3 5 -3 -53z"/>
<path d="M7478 493 c6 -2 18 -2 25 0 6 3 1 5 -13 5 -14 0 -19 -2 -12 -5z"/>
<path d="M7582 483 c-1 -13 -7 -23 -12 -23 -6 0 -5 -8 2 -20 9 -14 10 -29 2
-60 -6 -22 -7 -40 -3 -40 12 0 11 -57 -1 -65 -5 -3 -10 -11 -10 -18 0 -6 7 -2
15 10 12 18 15 46 12 130 -1 59 -4 98 -5 86z"/>
<path d="M2165 456 c14 -32 14 -40 3 -47 -11 -7 -11 -9 1 -9 10 0 12 -9 7 -32
-3 -18 -2 -39 3 -47 6 -9 9 14 8 62 -2 59 -6 80 -20 94 -17 17 -17 17 -2 -21z"/>
<path d="M2825 470 c21 -24 26 -25 19 -6 -3 8 -13 17 -22 21 -13 5 -13 2 3
-15z"/>
<path d="M2971 464 c-12 -15 -21 -41 -21 -59 0 -31 32 -85 51 -85 5 0 0 9 -11
20 -41 41 -35 114 11 137 17 9 19 13 7 13 -9 0 -26 -12 -37 -26z"/>
<path d="M3863 468 c-35 -38 -34 -95 3 -135 l26 -28 -21 29 c-30 41 -28 100 4
131 13 14 21 25 16 25 -4 0 -17 -10 -28 -22z"/>
<path d="M5197 470 c10 -11 19 -20 21 -20 1 0 -2 9 -8 20 -6 11 -15 20 -20 20
-6 0 -2 -9 7 -20z"/>
<path d="M6000 475 c-7 -8 -16 -12 -21 -9 -5 3 -9 -7 -8 -23 0 -16 3 -21 6
-13 3 8 15 25 26 38 11 12 18 22 15 22 -3 0 -11 -7 -18 -15z"/>
<path d="M6141 464 c-27 -35 -28 -94 -1 -125 l20 -24 -15 30 c-23 46 -19 92
10 120 13 14 20 25 15 25 -5 0 -18 -12 -29 -26z"/>
<path d="M6845 470 c14 -16 22 -42 26 -94 l6 -71 1 65 c2 67 -12 110 -38 118
-11 4 -9 -2 5 -18z"/>
<path d="M7121 445 c1 -48 1 -49 10 -17 6 21 6 39 0 50 -8 13 -10 5 -10 -33z"/>
<path d="M7155 480 c-3 -6 1 -7 9 -4 18 7 21 14 7 14 -6 0 -13 -4 -16 -10z"/>
<path d="M7265 470 c12 -13 20 -45 25 -97 l7 -78 2 63 c1 65 -19 132 -40 132
-8 0 -5 -7 6 -20z"/>
<path d="M7423 478 c-17 -23 -25 -44 -9 -24 9 11 22 23 28 28 9 5 9 8 2 8 -6
0 -16 -6 -21 -12z"/>
<path d="M2380 434 c-25 -26 -36 -42 -26 -36 17 8 26 2 63 -44 24 -30 47 -54
50 -54 6 0 -11 22 -41 55 -10 11 -25 30 -33 43 -15 21 -14 25 12 52 16 17 27
30 24 30 -3 0 -25 -21 -49 -46z"/>
<path d="M3133 472 c-8 -5 -9 -13 -3 -22 12 -19 13 -67 1 -89 -7 -13 -6 -18 5
-18 11 0 14 16 14 69 0 37 -1 68 -2 68 -2 0 -8 -4 -15 -8z"/>
<path d="M3380 451 c-5 -11 -9 -32 -9 -48 1 -25 2 -25 8 7 4 20 11 41 15 48 4
7 5 12 2 12 -3 0 -10 -9 -16 -19z"/>
<path d="M4000 463 c0 -7 5 -15 10 -18 6 -3 11 -23 12 -43 1 -37 1 -37 5 -5 3
20 -2 42 -11 55 -9 12 -16 17 -16 11z"/>
<path d="M4100 456 c0 -8 4 -17 9 -20 5 -4 7 3 4 14 -6 23 -13 26 -13 6z"/>
<path d="M3690 449 c0 -5 5 -7 10 -4 6 3 10 8 10 11 0 2 -4 4 -10 4 -5 0 -10
-5 -10 -11z"/>
<path d="M6286 447 c3 -10 9 -15 12 -12 3 3 0 11 -7 18 -10 9 -11 8 -5 -6z"/>
<path d="M1830 430 c-6 -11 -8 -20 -6 -20 3 0 10 9 16 20 6 11 8 20 6 20 -3 0
-10 -9 -16 -20z"/>
<path d="M4843 385 c0 -27 2 -38 4 -22 2 15 2 37 0 50 -2 12 -4 0 -4 -28z"/>
<path d="M7392 405 c0 -16 2 -22 5 -12 2 9 2 23 0 30 -3 6 -5 -1 -5 -18z"/>
<path d="M4121 404 c0 -11 3 -14 6 -6 3 7 2 16 -1 19 -3 4 -6 -2 -5 -13z"/>
<path d="M5218 414 c-4 -4 -5 -18 -2 -31 4 -13 1 -29 -4 -36 -7 -8 -7 -18 -2
-27 15 -24 21 -5 18 50 -2 28 -6 49 -10 44z"/>
<path d="M5490 400 c34 -11 60 -11 35 0 -11 5 -29 8 -40 8 -16 0 -15 -2 5 -8z"/>
<path d="M2039 383 c-13 -16 -12 -17 4 -4 16 13 21 21 13 21 -2 0 -10 -8 -17
-17z"/>
<path d="M5080 386 c-6 -8 -10 -25 -7 -38 4 -21 4 -20 6 4 0 15 9 32 19 37 9
6 12 11 6 11 -6 0 -17 -7 -24 -14z"/>
<path d="M5564 375 c8 -8 18 -15 22 -15 3 0 1 7 -6 15 -7 8 -17 15 -22 15 -5
0 -3 -7 6 -15z"/>
<path d="M1795 369 c-4 -6 -14 -8 -22 -4 -13 4 -14 3 -3 -10 7 -9 13 -14 14
-13 1 2 8 11 15 21 7 9 11 17 8 17 -3 0 -9 -5 -12 -11z"/>
<path d="M7400 361 c0 -10 39 -45 44 -40 3 2 -6 14 -20 26 -13 12 -24 18 -24
14z"/>
<path d="M4001 337 c-13 -21 -12 -21 5 -5 10 10 16 20 13 22 -3 3 -11 -5 -18
-17z"/>
<path d="M4176 343 c-6 -14 -5 -15 5 -6 7 7 10 15 7 18 -3 3 -9 -2 -12 -12z"/>
<path d="M6531 350 c0 -8 4 -22 9 -30 12 -18 12 -2 0 25 -6 13 -9 15 -9 5z"/>
<path d="M4140 333 c0 -15 18 -35 23 -27 3 5 -1 15 -9 22 -8 7 -14 9 -14 5z"/>
<path d="M4500 331 c0 -6 4 -13 10 -16 6 -3 7 1 4 9 -7 18 -14 21 -14 7z"/>
<path d="M7530 330 c-9 -6 -10 -10 -3 -10 6 0 15 5 18 10 8 12 4 12 -15 0z"/>
<path d="M3141 304 c0 -11 3 -14 6 -6 3 7 2 16 -1 19 -3 4 -6 -2 -5 -13z"/>
<path d="M6179 307 c5 -5 24 -7 42 -5 33 3 33 4 -8 8 -23 3 -39 2 -34 -3z"/>
<path d="M7478 313 c7 -3 16 -2 19 1 4 3 -2 6 -13 5 -11 0 -14 -3 -6 -6z"/>
<path d="M3908 303 c7 -3 16 -2 19 1 4 3 -2 6 -13 5 -11 0 -14 -3 -6 -6z"/>
<path d="M5748 303 c6 -2 18 -2 25 0 6 3 1 5 -13 5 -14 0 -19 -2 -12 -5z"/>
<path d="M7438 233 c6 -2 18 -2 25 0 6 3 1 5 -13 5 -14 0 -19 -2 -12 -5z"/>
</g>
</svg>
